#!OML:ASF F:\VICON\USERDATA\INSTALL\rory3\rory3.ASF
:FULLY-SPECIFIED
:DEGREES
64
root 0.054894362690547316 18.45770118897731 21.71782515268626 -2.908757460068727 -1.9270959273227897 -3.8210303842575355
lfemur -15.211293151724103 -2.790764056020465 -16.90567752308608
ltibia 45.92913840426326
lfoot -5.083743654325593 -6.594007312598604
ltoes -17.662797835203413
rfemur -3.311646858724579 8.412099482422182 29.583091154338632
rtibia 25.22807833877601
rfoot -7.215647353945014 -4.260507802256704
rtoes 10.149131832015083
lowerback 7.907312318589341 -0.022331365003494974 2.535992941228759
upperback 0.29881531257490157 0.42820815734562306 2.134259329797484
thorax -5.285072078254485 0.10482653051456847 0.5364803902754526
lowerneck -15.705626916435474 -2.724476765020174 -2.3918096478667623
upperneck 20.49767467112553 -3.3479971521589675 1.2398288952632284
head 9.139185550114165 -1.6242996867443436 0.4830920503700151
lclavicle -4.599292601533966e-16 -7.814366412885578e-16
lhumerus -32.82337266089414 4.754800615017002 78.86695995898175
lradius 29.942439186960677
lwrist 6.621291630461125
lhand -27.78945452757651 21.683580803963903
lfingers 7.12502
lthumb -1.0679126830219325 51.49166138182113
rclavicle -4.54147793744499e-16 -7.776670430577668e-16
rhumerus -33.64109282249685 -23.236477926508734 -73.71485853968257
rradius 19.81683328992069
rwrist 11.23819652656104
rhand -16.849119124383883 22.124565124373657
rfingers 7.12502
rthumb 9.148367542088787 -7.816149655356603
65
root 0.13311378741097332 18.346895401909034 22.17759005495609 -2.8167514240525637 -3.8235475923819395 -3.9487179139341366
lfemur -15.257368275266977 -4.531515133277312 -16.963523385654618
ltibia 42.864777615948036
lfoot -4.543677838544719 -6.193622536261829
ltoes -16.76830107780787
rfemur -3.007173417675112 8.21494094439901 30.00170297838385
rtibia 28.618172074281702
rfoot -5.975275020883111 -3.702102158714376
rtoes 10.605799652367175
lowerback 8.362358122972925 0.6614054094936708 2.8267314311499643
upperback 0.23264558362496346 1.3505726219610434 1.8531480897220711
thorax -5.299135392168698 0.5707118169921817 -0.13893925636715831
lowerneck -15.63881855199427 -2.791039568883928 -2.307858459609041
upperneck 20.48041468393796 -3.4638519116259605 1.296592782502986
head 9.123039934564106 -1.6720788534474027 0.490774945787135
lclavicle -4.598267763081249e-16 -7.813748848565215e-16
lhumerus -32.896979008058814 5.116560093298694 78.80991797401731
lradius 29.27792708029539
lwrist 7.362905749227654
lhand -27.80820908940624 20.94991736312599
lfingers 7.12502
lthumb -1.1284026297625709 50.740389621199995
rclavicle -4.523845850081581e-16 -7.762710079158849e-16
rhumerus -32.22273359784349 -21.447064338364314 -75.12775125001964
rradius 20.4660305311685
rwrist 10.26166977404102
rhand -16.88731359801356 21.860310125225816
rfingers 7.12502
rthumb 9.185211440838911 -7.708196183480057
66
root 0.2122590713710152 18.14553499642253 23.52452892557578 -2.962992720305213 -4.34054260181127 -4.033770001718739
lfemur -14.790398471714495 -5.932198682570887 -16.524970568995684
ltibia 39.64265745272735
lfoot -5.518324321859102 -6.549201459624453
ltoes -18.06348649881573
rfemur -2.988405784670716 7.524281255618162 30.31150811032317
rtibia 31.77369058852672
rfoot -4.182931435893443 -3.2719817426353432
rtoes 10.78318003807309
lowerback 9.249736470301448 1.126076605521261 3.376962233237686
upperback 0.16449607746536835 2.0425346209579205 1.6620823492691503
thorax -5.2740469544910225 0.9226327840684027 -0.951625879113384
lowerneck -15.701621799903878 -2.8324950750203306 -2.1838612632242866
upperneck 20.453043723554913 -3.5329383191814063 1.2515880616896955
head 9.106145910576538 -1.700536344560557 0.462159695973272
lclavicle -4.583552685860874e-16 -7.802737273066846e-16
lhumerus -33.142940302157875 5.264176928608896 78.77908568077602
lradius 28.784885935418327
lwrist 8.225151351553162
lhand -27.955242785878742 20.10139218955991
lfingers 7.12502
lthumb -1.2869664666705667 49.90658482102603
rclavicle -4.522679010846357e-16 -7.761887822040432e-16
rhumerus -30.80608557866076 -19.412106080174144 -76.55057105186212
rradius 21.461687275148435
rwrist 8.772044056181802
rhand -17.14754707233214 21.40197354312316
rfingers 7.12502
rthumb 9.061432710702563 -7.897625488690642
67
root 0.3226471320107453 17.900013854389336 24.121725223904036 -2.9686707647517108 -4.554059062062331 -4.911044027964191
lfemur -14.884603908396791 -5.415927042850313 -15.066744693469685
ltibia 37.29397915460884
lfoot -4.566710382950928 -5.8786442180977865
ltoes -16.43391892457681
rfemur -2.858225820106277 6.848463806084306 31.36342217463671
rtibia 33.83210918146629
rfoot -2.24088795279342 -3.2409110083548085
rtoes 10.368321047512318
lowerback 10.3077784276265 1.4431931246140788 4.528249539513095
upperback 0.15002032174793822 2.583037396016824 1.607401656306572
thorax -5.259999897179266 1.1865005673485451 -1.7406134316434623
lowerneck -15.837395591241934 -2.846472106038284 -2.0410477644289546
upperneck 20.369709148328152 -3.5477286256705227 1.1040409387992702
head 9.07491171640324 -1.7084520993884262 0.3983713405911599
lclavicle -4.571377454995468e-16 -7.793454870057442e-16
lhumerus -33.63186667727145 5.125363112236248 78.77348669884266
lradius 28.65173292848486
lwrist 8.97982162363203
lhand -28.12733821581328 19.48164452739035
lfingers 7.12502
lthumb -1.4914120090076954 49.2428905383422
rclavicle -4.538853321633441e-16 -7.774814445710134e-16
rhumerus -29.484144553337746 -17.266368935661326 -77.95150170830847
rradius 22.849685386881426
rwrist 6.780519042720286
rhand -17.529010842491164 20.787171690054304
rfingers 7.12502
rthumb 8.812711351751336 -8.479153315504005
68
root 0.46023609289327083 17.634854952120907 25.224548078800453 -2.7548319153193517 -4.614229781827386 -5.257071399082514
lfemur -15.364200850973244 -3.4546413729696583 -14.218627368419362
ltibia 35.54091974913961
lfoot -4.127820550950539 -6.106561646460744
ltoes -15.899930331699917
rfemur -2.634610842843241 6.7239268780130566 31.96660066848967
rtibia 34.911991396527206
rfoot -0.5373306063438887 -3.8971144875935617
rtoes 9.288119509605648
lowerback 10.88057205651881 1.8074520077669913 5.113437598476447
upperback 0.18085589818126632 3.0397058204593863 1.561195935077599
thorax -5.165404898615549 1.404232068786294 -2.307244678320769
lowerneck -15.928704077790607 -2.848215421494515 -1.9560559312109556
upperneck 20.199969928227745 -3.5411429586077405 0.9771831569238214
head 9.024039546518221 -1.7074511659638962 0.34421147619546816
lclavicle -4.573549334250098e-16 -7.795197499912529e-16
lhumerus -34.4532128718392 4.690576885222876 78.7394901315289
lradius 28.98869218746119
lwrist 9.594979148555444
lhand -28.31233923435671 19.146654542649795
lfingers 7.12502
lthumb -1.6851198254093032 48.93439782772114
rclavicle -4.564925632599332e-16 -7.795414133562104e-16
rhumerus -28.192126430529708 -15.147732077223672 -79.02885093577012
rradius 24.334215572086183
rwrist 4.8375886322645885
rhand -17.89627917033709 20.366584163575258
rfingers 7.12502
rthumb 8.521172506288305 -9.062893688302255
69
root 0.659982086374856 17.58208848327397 26.82987199031188 -1.8875541364902748 -4.996693663872301 -5.107847289375476
lfemur -16.734850688910477 -2.0169651363596315 -14.436033651140033
ltibia 34.48783619508777
lfoot -3.668448049394924 -5.905138132179495
ltoes -15.25647585912487
rfemur -1.4411618999604894 6.56663706880447 32.06374238024638
rtibia 34.64637278109127
rfoot 0.2830335183643413 -5.482840423420181
rtoes 7.945883255436108
lowerback 10.301153758843881 2.241808481961625 5.124294124107633
upperback 0.22062227989110716 3.4608551054375143 1.459172131439898
thorax -4.980799812136475 1.598030602107909 -2.5880591864960687
lowerneck -16.005104859940477 -2.8446040860621364 -1.8746012157801606
upperneck 19.984765687744936 -3.5241276873961076 0.8421896133703747
head 8.96933239660715 -1.7038508523261835 0.2776450891442331
lclavicle -4.570418507265247e-16 -7.79262235472662e-16
lhumerus -35.202200901017584 4.28102185432145 78.73913105501622
lradius 29.54880433066387
lwrist 10.112091484762491
lhand -28.47468738251005 19.114591565466704
lfingers 7.12502
lthumb -1.8623732544248908 48.87911963542404
rclavicle -4.588521011996536e-16 -7.813554562022847e-16
rhumerus -27.011676442830794 -13.379210921388363 -79.7784857445403
rradius 25.839185285481427
rwrist 3.0525161600078525
rhand -18.169284468427463 20.537341159596856
rfingers 7.12502
rthumb 8.249358784659304 -9.172716712089807
